<svg xmlns="http://www.w3.org/2000/svg" width="19.63" height="19.662" viewBox="0 0 19.63 19.662">
  <g id="_3144463" data-name="3144463" transform="translate(-0.185 0.25)" opacity="0.5">
    <path id="Trazado_10214" data-name="Trazado 10214" d="M18.4,9.17h-.25l-6.275-2.7A1.935,1.935,0,0,0,10.54,4.2V3.37h3.485a.561.561,0,0,0,.561-.561V.561A.561.561,0,0,0,14.024,0H5.895a.561.561,0,0,0-.561.561V2.809a.561.561,0,0,0,.561.561H9.418V4.2A1.935,1.935,0,0,0,8.083,6.477L1.852,9.17H1.6A1.114,1.114,0,0,0,.435,10.221v7.89A1.114,1.114,0,0,0,1.6,19.162H19a.561.561,0,0,0,.561-.561v-8.38A1.114,1.114,0,0,0,18.4,9.17ZM6.456,1.122h7.008V2.248H6.456ZM9.979,5.238a.817.817,0,1,1-.821.817.82.82,0,0,1,.821-.817ZM8.641,7.458a1.941,1.941,0,0,0,2.679,0L15.309,9.17H4.681Zm9.8,2.838v7.744c-.041-.005-16.845.01-16.886-.005V10.3Z" transform="translate(0)" fill="#4a4a46" stroke="#4a4a46" stroke-width="0.5"/>
    <path id="Trazado_10215" data-name="Trazado 10215" d="M77.254,305.08a.564.564,0,0,0-.564.564v4.4a.564.564,0,0,0,1.127,0v-4.4A.564.564,0,0,0,77.254,305.08Z" transform="translate(-73.404 -293.709)" fill="#4a4a46" stroke="#4a4a46" stroke-width="0.5"/>
    <path id="Trazado_10216" data-name="Trazado 10216" d="M159.524,304.673a.564.564,0,0,0-.564.564v4.4a.564.564,0,0,0,1.127,0v-4.4A.564.564,0,0,0,159.524,304.673Z" transform="translate(-152.599 -293.317)" fill="#4a4a46" stroke="#4a4a46" stroke-width="0.5"/>
    <path id="Trazado_10217" data-name="Trazado 10217" d="M241.793,302.215a.564.564,0,0,0-.564.564v4.4a.564.564,0,0,0,1.127,0v-4.4A.564.564,0,0,0,241.793,302.215Z" transform="translate(-231.793 -290.951)" fill="#4a4a46" stroke="#4a4a46" stroke-width="0.5"/>
    <path id="Trazado_10218" data-name="Trazado 10218" d="M324.064,303.854a.564.564,0,0,0-.564.564v4.4a.564.564,0,1,0,1.127,0v-4.4A.564.564,0,0,0,324.064,303.854Z" transform="translate(-310.988 -292.529)" fill="#4a4a46" stroke="#4a4a46" stroke-width="0.5"/>
    <path id="Trazado_10219" data-name="Trazado 10219" d="M406.333,302.912a.564.564,0,0,0-.564.564v4.4a.564.564,0,0,0,1.127,0v-4.4A.564.564,0,0,0,406.333,302.912Z" transform="translate(-390.182 -291.622)" fill="#4a4a46" stroke="#4a4a46" stroke-width="0.5"/>
  </g>
</svg>
