<svg xmlns="http://www.w3.org/2000/svg" width="20.612" height="21.048" viewBox="0 0 20.612 21.048">
  <g id="_861841" data-name="861841" transform="translate(-14.021 0.15)" opacity="0.5">
    <g id="Grupo_18769" data-name="Grupo 18769" transform="translate(14.237)">
      <path id="Trazado_10213" data-name="Trazado 10213" d="M29.931,2.471a3.16,3.16,0,0,0-6.242.577v.988a5.14,5.14,0,0,0-1.68,1.086,4.826,4.826,0,0,0-1.248,5.045l-1.268,1.227-.144,1.022-1.056.14-1.121,1.085-.144,1.022-1.056.14L14.237,16.48l1.957,1.894H18.84l5.2-5.033a5.274,5.274,0,0,0,3,.054v.161l.645.821-.645.821v1.535l.645.821-.645.821v2.372h2.767l1.871-1.811V11.819a4.922,4.922,0,0,0,2.8-4.421A5.027,5.027,0,0,0,29.931,2.471Zm-.571,3.4a.56.56,0,1,1-.579.56A.57.57,0,0,1,29.361,5.873ZM24.945,3.048a1.866,1.866,0,0,1,1.894-1.833,1.891,1.891,0,0,1,1.8,1.274,5.182,5.182,0,0,0-2.667,1.191,5.325,5.325,0,0,0-1.03.031Zm2.1,9.064a3.979,3.979,0,0,1-2.916-.037l-.389-.159-5.417,5.242H16.714l-.7-.678.546-.528,1.582-.209.216-1.531.523-.506,1.582-.209.216-1.531,1.553-1.5-.164-.377a3.642,3.642,0,0,1,.828-4.1,3.887,3.887,0,0,1,2.011-1.032,4.805,4.805,0,0,0-.67,2.449,4.922,4.922,0,0,0,2.8,4.421Zm3.774-1.246-.392.154v7.414l-1.135,1.1H28.3v-.747l.966-1.231L28.3,16.323v-.716l.966-1.231L28.3,13.146V11.02l-.392-.154A3.731,3.731,0,0,1,25.494,7.4a3.787,3.787,0,0,1,3.238-3.692V4.765a1.783,1.783,0,0,0-1.207,1.668,1.836,1.836,0,0,0,3.669,0,1.783,1.783,0,0,0-1.207-1.668V3.706A3.787,3.787,0,0,1,33.227,7.4,3.731,3.731,0,0,1,30.815,10.866Z" transform="translate(-14.237)" fill="#4a4a46" stroke="#4a4a46" stroke-width="0.3"/>
    </g>
  </g>
</svg>
