<svg xmlns="http://www.w3.org/2000/svg" width="26.135" height="15.625" viewBox="0 0 26.135 15.625">
  <g id="Grupo_18826" data-name="Grupo 18826" transform="translate(0.537 0.5)">
    <g id="Grupo_18449" data-name="Grupo 18449">
      <g id="Grupo_18448" data-name="Grupo 18448" transform="translate(0 0)">
        <path id="Trazado_10180" data-name="Trazado 10180" d="M24.979,113.678c-.2-.287-4.942-7.016-12.443-7.016-6.436,0-12.171,6.69-12.413,6.975a.524.524,0,0,0,0,.675c.241.285,5.976,6.975,12.413,6.975s12.171-6.69,12.412-6.975A.522.522,0,0,0,24.979,113.678Zm-12.443,6.565c-5.16,0-10.065-4.92-11.311-6.268,1.244-1.349,6.145-6.268,11.311-6.268,6.037,0,10.3,4.913,11.339,6.24C22.673,115.251,17.739,120.242,12.536,120.242Z" transform="translate(0 -106.662)" fill="#b4b4b4" stroke="#b4b4b4" stroke-width="1"/>
      </g>
    </g>
    <g id="Grupo_18451" data-name="Grupo 18451" transform="translate(8.357 3.134)">
      <g id="Grupo_18450" data-name="Grupo 18450" transform="translate(0 0)">
        <path id="Trazado_10181" data-name="Trazado 10181" d="M174.841,170.662a4.179,4.179,0,1,0,4.179,4.179A4.183,4.183,0,0,0,174.841,170.662Zm0,7.313a3.134,3.134,0,1,1,3.134-3.134A3.138,3.138,0,0,1,174.841,177.975Z" transform="translate(-170.662 -170.662)" fill="#b4b4b4" stroke="#b4b4b4" stroke-width="1"/>
      </g>
    </g>
  </g>
</svg>
