<svg xmlns="http://www.w3.org/2000/svg" width="20.569" height="20.293" viewBox="0 0 20.569 20.293">
  <g id="Grupo_18698" data-name="Grupo 18698" transform="translate(0.639 0.5)">
    <path id="Trazado_1903" data-name="Trazado 1903" d="M19.77,7.393h0L11.9-.478a1.776,1.776,0,0,0-2.512,0L1.521,7.388,1.513,7.4a1.775,1.775,0,0,0,1.182,3.026l.055,0h.314v5.791a2.081,2.081,0,0,0,2.079,2.079h11a2.081,2.081,0,0,0,2.079-2.079V10.425h.291A1.776,1.776,0,0,0,19.77,7.393Zm-.8,1.712a.642.642,0,0,1-.457.189h-.856a.565.565,0,0,0-.565.565v6.357a.949.949,0,0,1-.948.948h-11a.949.949,0,0,1-.948-.948V9.859a.565.565,0,0,0-.565-.565H2.76a.645.645,0,0,1-.445-1.1h0L10.186.322a.645.645,0,0,1,.913,0l7.868,7.868,0,0A.647.647,0,0,1,18.969,9.1Z" transform="translate(-0.997 0.998)" fill="#a3a3a1" stroke="#e23b1b" stroke-width="1"/>
    <path id="Trazado_2105" data-name="Trazado 2105" d="M57.984,709.131v-4.085s-.078-1.309,1.155-1.309h2.778a1.3,1.3,0,0,1,.939,1.309v4.085" transform="translate(-50.586 -690.301)" fill="none" stroke="#e23b1b" stroke-width="2"/>
  </g>
</svg>
