<svg xmlns="http://www.w3.org/2000/svg" width="19.43" height="19.356" viewBox="0 0 19.43 19.356">
  <g id="_151901" data-name="151901" transform="translate(0 -0.117)">
    <path id="Trazado_10208" data-name="Trazado 10208" d="M15.812,16.464H12.586v1.9h3.226c.96,0,1.7.485,1.7.9V27.68c0,.418-.744.9-1.7.9H3.618c-.959,0-1.7-.486-1.7-.9V19.266c0-.418.744-.9,1.7-.9H6.843v-1.9H3.618C1.589,16.465,0,17.7,0,19.266V27.68c0,1.571,1.589,2.8,3.618,2.8H15.812c2.028,0,3.618-1.231,3.618-2.8V19.266C19.43,17.695,17.841,16.464,15.812,16.464Z" transform="translate(0 -11.009)" fill="#e23b1b"/>
    <path id="Trazado_10209" data-name="Trazado 10209" d="M25.416,9.551a.977.977,0,0,0-.693.287L23.5,11.064V1.1a.98.98,0,0,0-1.959,0V11.13L20.244,9.838a.979.979,0,0,0-1.385,1.385l2.925,2.925a.976.976,0,0,0,.692.286h.015a.975.975,0,0,0,.692-.286l2.925-2.925a.98.98,0,0,0-.693-1.672Z" transform="translate(-12.738)" fill="#e23b1b"/>
  </g>
</svg>
