<svg xmlns="http://www.w3.org/2000/svg" width="15.403" height="20.8" viewBox="0 0 15.403 20.8">
  <g id="_1819942" data-name="1819942" transform="translate(0.4 0.4)">
    <path id="Trazado_10178" data-name="Trazado 10178" d="M172.5,295.8a.586.586,0,0,0,.586-.586v-2.427a.586.586,0,0,0-1.172,0v2.427A.586.586,0,0,0,172.5,295.8Zm0,0" transform="translate(-165.199 -280.785)" fill="#b4b4b4" stroke="#b4b4b4" stroke-width="0.8"/>
    <path id="Trazado_10179" data-name="Trazado 10179" d="M14.017,6.427H11.243V3.573A3.775,3.775,0,0,0,7.3,0,3.775,3.775,0,0,0,3.359,3.573V6.427H.586A.586.586,0,0,0,0,7.013v7.493A5.5,5.5,0,0,0,5.494,20H9.109A5.5,5.5,0,0,0,14.6,14.506V7.013A.586.586,0,0,0,14.017,6.427ZM4.531,3.573a2.608,2.608,0,0,1,2.77-2.4,2.608,2.608,0,0,1,2.77,2.4V6.427H4.531Zm8.9,10.934a4.327,4.327,0,0,1-4.322,4.322H5.494a4.327,4.327,0,0,1-4.322-4.322V7.6H13.431Zm0,0" fill="#b4b4b4" stroke="#b4b4b4" stroke-width="0.8"/>
  </g>
</svg>
