<?xml version="1.0" encoding="UTF-8" standalone="no" ?>
<!DOCTYPE svg PUBLIC "-//W3C//DTD SVG 1.1//EN" "http://www.w3.org/Graphics/SVG/1.1/DTD/svg11.dtd">
<svg xmlns="http://www.w3.org/2000/svg" xmlns:xlink="http://www.w3.org/1999/xlink" version="1.1" width="500" height="500" viewBox="0 0 500 500" xml:space="preserve">
<desc>Created with Fabric.js 4.6.0</desc>
<defs>
</defs>
<g transform="matrix(0.49 0 0 0.49 263.14 249.64)" id="EXXKhV328cnpyNBXSsJZN"  >
<path style="stroke: none; stroke-width: 32; stroke-dasharray: none; stroke-linecap: butt; stroke-dashoffset: 0; stroke-linejoin: miter; stroke-miterlimit: 4; fill: rgb(225,57,7); fill-rule: nonzero; opacity: 1;" vector-effect="non-scaling-stroke"  transform=" translate(0, 0)" d="M -9 17.5 L 9 17.5 L 9 -6.5 L -3 -6.5 L -3 -17.5 C -6.313000000000001 -17.5 -9 -14.813 -9 -11.5 z" stroke-linecap="round" />
</g>
<g transform="matrix(0.49 0 0 0.49 239.69 247.93)" id="6ghaXeaj0EiwtwMkyT5vN"  >
<path style="stroke: none; stroke-width: 32; stroke-dasharray: none; stroke-linecap: butt; stroke-dashoffset: 0; stroke-linejoin: miter; stroke-miterlimit: 4; fill: rgb(225,57,7); fill-rule: nonzero; opacity: 1;" vector-effect="non-scaling-stroke"  transform=" translate(-5, -28)" d="M 8 28 C 8 29.657 6.657 31 5 31 C 3.343 31 2 29.657 2 28 C 2 26.343 3.343 25 5 25 C 6.657 25 8 26.343 8 28 L 8 28 z" stroke-linecap="round" />
</g>
<g transform="matrix(0.49 0 0 0.49 239.69 250.86)" id="ZsW4nsig4SdsanXT4WWMy"  >
<path style="stroke: none; stroke-width: 32; stroke-dasharray: none; stroke-linecap: butt; stroke-dashoffset: 0; stroke-linejoin: miter; stroke-miterlimit: 4; fill: rgb(225,57,7); fill-rule: nonzero; opacity: 1;" vector-effect="non-scaling-stroke"  transform=" translate(-5, -34)" d="M 8 34 C 8 35.657 6.657 37 5 37 C 3.343 37 2 35.657 2 34 C 2 32.343 3.343 31 5 31 C 6.657 31 8 32.342 8 34 L 8 34 z" stroke-linecap="round" />
</g>
<g transform="matrix(0.49 0 0 0.49 239.69 253.79)" id="KajKXk63X6Safu9sEippS"  >
<path style="stroke: none; stroke-width: 32; stroke-dasharray: none; stroke-linecap: butt; stroke-dashoffset: 0; stroke-linejoin: miter; stroke-miterlimit: 4; fill: rgb(225,57,7); fill-rule: nonzero; opacity: 1;" vector-effect="non-scaling-stroke"  transform=" translate(-5, -40)" d="M 8 40 C 8 41.657 6.657 43 5 43 C 3.343 43 2 41.657 2 40 C 2 38.343 3.343 37 5 37 C 6.657 37 8 38.342 8 40 L 8 40 z" stroke-linecap="round" />
</g>
<g transform="matrix(0.49 0 0 0.49 239.69 256.72)" id="CAl_evk5jTx0hxUqbhg5a"  >
<path style="stroke: none; stroke-width: 32; stroke-dasharray: none; stroke-linecap: butt; stroke-dashoffset: 0; stroke-linejoin: miter; stroke-miterlimit: 4; fill: rgb(225,57,7); fill-rule: nonzero; opacity: 1;" vector-effect="non-scaling-stroke"  transform=" translate(-5, -46)" d="M 8 46 C 8 47.657 6.657 49 5 49 C 3.343 49 2 47.657 2 46 C 2 44.343 3.343 43 5 43 C 6.657 43 8 44.342 8 46 L 8 46 z" stroke-linecap="round" />
</g>
<g transform="matrix(0.49 0 0 0.49 249.46 236.69)" id="kk-WbcxvH6nS-RUvF1PYg"  >
<path style="stroke: none; stroke-width: 32; stroke-dasharray: none; stroke-linecap: butt; stroke-dashoffset: 0; stroke-linejoin: miter; stroke-miterlimit: 4; fill: rgb(225,57,7); fill-rule: nonzero; opacity: 1;" vector-effect="non-scaling-stroke"  transform=" translate(-25, -5)" d="M 42 8 L 8 8 L 8 6 C 8 3.791 9.791 2 12 2 L 38 2 C 40.209 2 42 3.791 42 6 L 42 8 z" stroke-linecap="round" />
</g>
<g transform="matrix(0.49 0 0 0.49 249.46 263.08)" id="rLU-fZWd1pVYxcBJ8bfDj"  >
<path style="stroke: none; stroke-width: 32; stroke-dasharray: none; stroke-linecap: butt; stroke-dashoffset: 0; stroke-linejoin: miter; stroke-miterlimit: 4; fill: rgb(225,57,7); fill-rule: nonzero; opacity: 1;" vector-effect="non-scaling-stroke"  transform=" translate(-25, -59)" d="M 8 56 L 42 56 L 42 58 C 42 60.209 40.209 62 38 62 L 12 62 C 9.791 62 8 60.209 8 58 L 8 56 z" stroke-linecap="round" />
</g>
<g transform="matrix(0.49 0 0 0.49 249.46 249.88)" id="p26AwDf1MC9epPv_K5xtF"  >
<path style="stroke: none; stroke-width: 32; stroke-dasharray: none; stroke-linecap: butt; stroke-dashoffset: 0; stroke-linejoin: miter; stroke-miterlimit: 4; fill: rgb(225,57,7); fill-rule: nonzero; opacity: 1;" vector-effect="non-scaling-stroke"  transform=" translate(-25, -32)" d="M 8 10 L 8 54 L 42 54 L 42 10 L 8 10 z M 25 21.999 L 35 21.999 L 35 23.999 L 25 23.999 L 25 21.999 z M 38 28 L 38 36 L 28 36 L 28 28 L 38 28 z M 12 15 L 22 15 L 22 23 L 12 23 L 12 15 z M 11 26.999 L 25 26.999 L 25 28.999 L 11 28.999 L 11 26.999 z M 11 30.999 L 25 30.999 L 25 32.998999999999995 L 11 32.998999999999995 L 11 30.999 z M 11 34.999 L 25 34.999 L 25 36.999 L 11 36.999 L 11 34.999 z M 22 49 L 12 49 L 12 41 L 22 41 L 22 49 z M 27 49.999 L 25 49.999 L 25 47.999 L 27 47.999 L 27 49.999 z M 31 49.999 L 29 49.999 L 29 47.999 L 31 47.999 L 31 49.999 z M 35 49.999 L 33 49.999 L 33 47.999 L 35 47.999 L 35 49.999 z M 39 49.999 L 37 49.999 L 37 47.999 L 39 47.999 L 39 49.999 z M 39 45.999 L 25 45.999 L 25 43.999 L 39 43.999 L 39 45.999 z M 39 41.999 L 25 41.999 L 25 39.999 L 39 39.999 L 39 41.999 z M 39 23.999 L 37 23.999 L 37 21.999 L 39 21.999 L 39 23.999 z M 39 19.999 L 25 19.999 L 25 17.999 L 39 17.999 L 39 19.999 z M 39 15.999 L 25 15.999 L 25 13.999 L 39 13.999 L 39 15.999 z" stroke-linecap="round" />
</g>
</svg>