<svg xmlns="http://www.w3.org/2000/svg" width="19.43" height="20.332" viewBox="0 0 19.43 20.332">
  <g id="_151901" data-name="151901" transform="translate(0 0.882)" opacity="0.5">
    <path id="Trazado_10208" data-name="Trazado 10208" d="M15.812,16.464H12.586v1.894h3.226c.96,0,1.7.485,1.7.9v8.4c0,.417-.744.9-1.7.9H3.618c-.959,0-1.7-.485-1.7-.9v-8.4c0-.417.744-.9,1.7-.9H6.843V16.465H3.618C1.589,16.465,0,17.693,0,19.261v8.4c0,1.569,1.589,2.8,3.618,2.8H15.812c2.028,0,3.618-1.229,3.618-2.8v-8.4C19.43,17.693,17.841,16.464,15.812,16.464Z" transform="translate(0 -11.009)" fill="#4a4a46"/>
    <path id="Trazado_10209" data-name="Trazado 10209" d="M6.844,9.434a.977.977,0,0,0-.693.287L4.925,10.947V.98a.98.98,0,0,0-1.959,0V11.013L1.672,9.721A.979.979,0,1,0,.287,11.106l2.925,2.925a.976.976,0,0,0,.692.286h.015a.975.975,0,0,0,.692-.286l2.925-2.925a.98.98,0,0,0-.693-1.672Z" transform="translate(13.658 13.435) rotate(180)" fill="#4a4a46"/>
  </g>
</svg>
