<svg xmlns="http://www.w3.org/2000/svg" width="21.642" height="21.733" viewBox="0 0 21.642 21.733">
  <g id="_1738780" data-name="1738780" transform="translate(-0.155 0.3)" opacity="0.5">
    <path id="Trazado_10188" data-name="Trazado 10188" d="M21.143,12.85l-1.154-.666a1.867,1.867,0,0,1,0-3.235l1.154-.666a.619.619,0,0,0,.227-.846L18.883,3.13a.619.619,0,0,0-.846-.227l-1.154.666a1.867,1.867,0,0,1-2.8-1.617V.619A.619.619,0,0,0,13.463,0H8.49a.619.619,0,0,0-.619.619V1.952a1.867,1.867,0,0,1-2.8,1.617L3.916,2.9a.619.619,0,0,0-.846.227L.583,7.437a.619.619,0,0,0,.227.846l1.154.666a1.867,1.867,0,0,1,0,3.235L.81,12.85a.619.619,0,0,0-.227.846L3.07,18a.619.619,0,0,0,.846.227l1.154-.666a1.867,1.867,0,0,1,2.8,1.617v1.333a.619.619,0,0,0,.619.619h4.973a.619.619,0,0,0,.619-.619V19.181a1.867,1.867,0,0,1,2.8-1.617l1.154.666A.619.619,0,0,0,18.883,18L21.37,13.7A.619.619,0,0,0,21.143,12.85Zm-3.023,4-.618-.357a3.105,3.105,0,0,0-4.658,2.69v.714H9.109v-.714a3.105,3.105,0,0,0-4.658-2.69l-.618.357L1.965,13.613l.618-.357a3.106,3.106,0,0,0,0-5.38L1.965,7.52,3.833,4.285l.618.357a3.105,3.105,0,0,0,4.658-2.69V1.238h3.735v.714A3.105,3.105,0,0,0,17.5,4.642l.618-.357L19.988,7.52l-.618.357a3.106,3.106,0,0,0,0,5.38l.618.357Zm0,0" fill="#4a4a46" stroke="#4a4a46" stroke-width="0.6"/>
    <path id="Trazado_10189" data-name="Trazado 10189" d="M153.444,151a4.12,4.12,0,1,0,4.119,4.12A4.124,4.124,0,0,0,153.444,151Zm0,7.063a2.943,2.943,0,1,1,2.942-2.943A2.946,2.946,0,0,1,153.444,158.063Zm0,0" transform="translate(-142.467 -144.553)" fill="#4a4a46" stroke="#4a4a46" stroke-width="0.6"/>
  </g>
</svg>
