<svg xmlns="http://www.w3.org/2000/svg" width="18.113" height="18.113" viewBox="0 0 18.113 18.113">
  <g id="Grupo_18445" data-name="Grupo 18445" transform="translate(0.25 0.25)">
    <g id="Grupo_18236" data-name="Grupo 18236">
      <path id="Trazado_7388" data-name="Trazado 7388" d="M15.034,11.386a8.773,8.773,0,0,0-3.347-2.1,5.091,5.091,0,1,0-5.761,0A8.821,8.821,0,0,0,0,17.613H1.376a7.431,7.431,0,1,1,14.861,0h1.376A8.749,8.749,0,0,0,15.034,11.386ZM8.807,8.807a3.715,3.715,0,1,1,3.715-3.715A3.72,3.72,0,0,1,8.807,8.807Z" transform="translate(0)" fill="#b4b4b4" stroke="#b4b4b4" stroke-linecap="round" stroke-linejoin="round" stroke-width="0.5"/>
    </g>
  </g>
</svg>
