<svg xmlns="http://www.w3.org/2000/svg" width="24.738" height="20.2" viewBox="0 0 24.738 20.2">
  <g id="_2097517" data-name="2097517" transform="translate(0.1 -61.4)">
    <path id="Trazado_10210" data-name="Trazado 10210" d="M8.837,72.908a5.194,5.194,0,1,0-4.842-3.28L.6,73.016a2.063,2.063,0,0,0,2.917,2.917l3.392-3.391A5.23,5.23,0,0,0,8.837,72.908ZM6.191,65.06A3.738,3.738,0,1,1,5.1,67.7a3.731,3.731,0,0,1,1.1-2.644ZM2.485,74.9a.6.6,0,0,1-.844,0,.6.6,0,0,1,0-.842L4.756,70.94a5.3,5.3,0,0,0,.4.445,5.235,5.235,0,0,0,.445.4Z" transform="translate(0 -1)" fill="#e23b1b" stroke="#e23b1b" stroke-width="0.2"/>
    <path id="Trazado_10211" data-name="Trazado 10211" d="M111.519,124.351H110.8V110.4a1.583,1.583,0,0,0-1.541-1.619h-1.94a1.583,1.583,0,0,0-1.541,1.619v13.954h-1.05v-5.663a1.583,1.583,0,0,0-1.541-1.619h-1.94a1.583,1.583,0,0,0-1.541,1.619v5.663h-1.05v-2.657a1.583,1.583,0,0,0-1.541-1.619h-1.94a1.583,1.583,0,0,0-1.541,1.619v2.657H92.92a.753.753,0,0,0,0,1.5h18.6a.753.753,0,0,0,0-1.5Zm-16.452,0v-2.657a.113.113,0,0,1,.11-.115h1.94a.113.113,0,0,1,.11.115v2.657Zm6.072,0v-5.663a.113.113,0,0,1,.11-.115h1.94a.113.113,0,0,1,.11.115v5.663Zm6.073,0V110.4a.113.113,0,0,1,.11-.115h1.94a.113.113,0,0,1,.11.115v13.954Z" transform="translate(-87.697 -44.355)" fill="#e23b1b" stroke="#e23b1b" stroke-width="0.2"/>
    <path id="Trazado_10212" data-name="Trazado 10212" d="M136.335,126.835a2.277,2.277,0,0,0,1.614-.667h0a2.286,2.286,0,1,0-1.614.667Zm-.578-2.859a.816.816,0,1,1,1.155,1.154h0a.816.816,0,1,1-1.155-1.154Z" transform="translate(-127.499 -57.849)" fill="#e23b1b" stroke="#e23b1b" stroke-width="0.2"/>
  </g>
</svg>
