<svg xmlns="http://www.w3.org/2000/svg" width="19.93" height="21.348" viewBox="0 0 19.93 21.348">
  <g id="_3322491" data-name="3322491" transform="translate(0.25 -17.024)">
    <path id="Trazado_10206" data-name="Trazado 10206" d="M18.861,36.812a2.165,2.165,0,0,1-1.271-.368,5.064,5.064,0,0,0-.483-.253l1.923-5.82a1.946,1.946,0,0,0-.068-1.39,1.547,1.547,0,0,0-.945-.87l-1.324-.4V23.144a1.639,1.639,0,0,0-1.511-1.739H12.569v-1.69a2.3,2.3,0,0,0-2.121-2.441H8.982a2.3,2.3,0,0,0-2.121,2.441V21.4H4.248a1.639,1.639,0,0,0-1.511,1.739v4.569l-1.324.4a1.547,1.547,0,0,0-.945.87A1.946,1.946,0,0,0,.4,30.371l1.923,5.82a5.067,5.067,0,0,0-.483.253,2.166,2.166,0,0,1-1.271.368.661.661,0,0,0,0,1.31,3.154,3.154,0,0,0,1.778-.505,2.166,2.166,0,0,1,1.271-.368,2.165,2.165,0,0,1,1.271.368,3.154,3.154,0,0,0,1.778.505,3.154,3.154,0,0,0,1.778-.505,2.165,2.165,0,0,1,1.271-.368,2.165,2.165,0,0,1,1.271.368,3.154,3.154,0,0,0,1.778.505,3.154,3.154,0,0,0,1.778-.505,2.377,2.377,0,0,1,2.541,0,3.154,3.154,0,0,0,1.778.505.661.661,0,0,0,0-1.31ZM8,19.715a1.066,1.066,0,0,1,.983-1.131h1.466a1.066,1.066,0,0,1,.983,1.131V21.4H8ZM3.875,23.144a.4.4,0,0,1,.373-.429H15.182a.4.4,0,0,1,.373.429V27.37l-5.7-1.712a.5.5,0,0,0-.288,0l-5.7,1.712V23.144Zm10.159,13.3a2.377,2.377,0,0,1-2.541,0,3.154,3.154,0,0,0-1.778-.505,3.154,3.154,0,0,0-1.778.505,2.166,2.166,0,0,1-1.271.368A2.165,2.165,0,0,1,5.4,36.444a3.154,3.154,0,0,0-1.778-.505q-.082,0-.16,0L1.464,29.906a.449.449,0,0,1,.016-.325.361.361,0,0,1,.221-.2l8.014-2.409,8.014,2.409a.361.361,0,0,1,.221.2.449.449,0,0,1,.016.325l-1.994,6.036q-.078,0-.16,0A3.153,3.153,0,0,0,14.034,36.444Z" fill="#e23b1b" stroke="#e23b1b" stroke-width="0.5"/>
    <path id="Trazado_10207" data-name="Trazado 10207" d="M115.895,281.884l-4.573-1.539a.4.4,0,0,0-.257,0l-4.573,1.539a.689.689,0,0,0-.363.8c.071.35.349.56.621.468l4.445-1.5,4.445,1.5a.4.4,0,0,0,.129.021.55.55,0,0,0,.492-.49A.689.689,0,0,0,115.895,281.884Z" transform="translate(-101.478 -251.564)" fill="#e23b1b" stroke="#e23b1b" stroke-width="0.5"/>
  </g>
</svg>
