<svg xmlns="http://www.w3.org/2000/svg" width="20.76" height="20.76" viewBox="0 0 20.76 20.76">
  <g id="Grupo_18771" data-name="Grupo 18771" transform="translate(-112.873 -442.39)">
    <g id="Grupo_18704" data-name="Grupo 18704" transform="translate(112.873 442.39)">
      <g id="Grupo_18710" data-name="Grupo 18710" transform="translate(0 0)">
        <path id="Trazado_10186" data-name="Trazado 10186" d="M176.106,79.39a10.38,10.38,0,1,0,10.38,10.38A10.392,10.392,0,0,0,176.106,79.39Zm0,18.981a8.6,8.6,0,1,1,8.6-8.6A8.61,8.61,0,0,1,176.106,98.371Z" transform="translate(-165.726 -79.39)" fill="#e23b1b"/>
      </g>
    </g>
    <g id="Grupo_18705" data-name="Grupo 18705" transform="translate(119.896 445.712)">
      <g id="Grupo_18712" data-name="Grupo 18712" transform="translate(0 0)">
        <path id="Trazado_10187" data-name="Trazado 10187" d="M230.667,113.448a.89.89,0,0,0,.89-.89v-.617a2.744,2.744,0,0,0-2.467-2.727v-.975a.89.89,0,1,0-1.78,0v1.017a3.049,3.049,0,0,0,.581,6.041h.617a1.269,1.269,0,1,1,0,2.539h-.925a.962.962,0,0,1-.961-.961.89.89,0,0,0-1.78,0,2.744,2.744,0,0,0,2.467,2.727v.975a.89.89,0,0,0,1.78,0V119.56a3.049,3.049,0,0,0-.581-6.041h-.617a1.269,1.269,0,1,1,0-2.539h.925a.962.962,0,0,1,.961.961v.617A.89.89,0,0,0,230.667,113.448Z" transform="translate(-224.842 -107.35)" fill="#e23b1b"/>
      </g>
    </g>
  </g>
</svg>
