<svg xmlns="http://www.w3.org/2000/svg" width="21.012" height="23.839" viewBox="0 0 21.012 23.839">
  <g id="_837979" data-name="837979" transform="translate(-30.75 0.25)">
    <g id="Grupo_18772" data-name="Grupo 18772" transform="translate(31)">
      <path id="Trazado_10220" data-name="Trazado 10220" d="M41.256,0A10.268,10.268,0,0,0,31,10.256v5.561a2.054,2.054,0,0,0,2.051,2.051h.8a2.051,2.051,0,0,0,3.985-.684V11.624a2.051,2.051,0,0,0-3.985-.684h-.8a2.041,2.041,0,0,0-.684.118v-.8a8.889,8.889,0,0,1,17.777,0v.8a2.042,2.042,0,0,0-.684-.118h-.8a2.051,2.051,0,0,0-3.985.684v5.561a2.051,2.051,0,0,0,2.647,1.963A2.055,2.055,0,0,1,45.359,20.6H43.19a2.051,2.051,0,1,0,0,1.367h2.169a3.423,3.423,0,0,0,3.419-3.419v-.684h.684a2.054,2.054,0,0,0,2.051-2.051V10.256A10.268,10.268,0,0,0,41.256,0ZM35.1,11.624a.684.684,0,1,1,1.367,0v5.561a.684.684,0,1,1-1.367,0Zm-2.051.684h.684V16.5h-.684a.685.685,0,0,1-.684-.684V12.991A.685.685,0,0,1,33.051,12.307Zm8.2,9.664a.684.684,0,1,1,.684-.684A.685.685,0,0,1,41.256,21.971Zm6.154-4.786a.684.684,0,0,1-1.367,0V11.624a.684.684,0,1,1,1.367,0Zm2.735-1.367a.685.685,0,0,1-.684.684h-.684V12.307h.684a.685.685,0,0,1,.684.684Z" transform="translate(-31)" fill="#e23b1b" stroke="#e23b1b" stroke-width="0.5"/>
    </g>
  </g>
</svg>
